<?xml version="1.0" standalone="no"?>
<!DOCTYPE svg PUBLIC "-//W3C//DTD SVG 20010904//EN"
 "http://www.w3.org/TR/2001/REC-SVG-20010904/DTD/svg10.dtd">
<svg version="1.0" xmlns="http://www.w3.org/2000/svg"
 width="500.000000pt" height="500.000000pt" viewBox="0 0 500.000000 500.000000"
 preserveAspectRatio="xMidYMid meet">

<g transform="translate(0.000000,500.000000) scale(0.100000,-0.100000)"
fill="#000000" stroke="none">
<path d="M760 2500 l0 -480 1740 0 1740 0 0 480 0 480 -1740 0 -1740 0 0 -480z
m3450 0 l0 -450 -1715 0 -1715 0 0 450 0 450 1715 0 1715 0 0 -450z"/>
<path d="M850 2500 l0 -390 825 0 825 0 0 390 0 390 -825 0 -825 0 0 -390z
m640 115 c0 -12 -14 -15 -65 -15 l-65 0 0 -40 0 -40 60 0 c47 0 60 -3 60 -15
0 -12 -13 -15 -60 -15 l-60 0 0 -45 0 -45 65 0 c51 0 65 -3 65 -15 0 -12 -16
-15 -80 -15 l-80 0 0 130 0 130 80 0 c64 0 80 -3 80 -15z m280 0 c0 -11 -12
-15 -45 -15 l-45 0 0 -115 c0 -96 -3 -115 -15 -115 -12 0 -15 19 -15 115 l0
115 -45 0 c-33 0 -45 4 -45 15 0 12 18 15 105 15 87 0 105 -3 105 -15z m121
-45 c18 -33 37 -60 41 -60 4 0 22 27 40 60 21 38 40 60 51 60 9 0 17 -2 17 -5
0 -2 -20 -38 -45 -78 -38 -63 -45 -83 -45 -126 0 -44 -3 -51 -20 -51 -17 0
-20 7 -20 53 0 33 -7 63 -18 82 -72 118 -75 125 -55 125 13 0 30 -20 54 -60z"/>
<path d="M3365 2631 c-54 -24 -80 -72 -73 -136 14 -118 162 -161 246 -71 59
65 39 170 -41 207 -52 23 -81 23 -132 0z m106 -69 c25 -21 30 -71 9 -96 -16
-21 -74 -20 -95 0 -25 25 -16 85 15 101 34 17 44 16 71 -5z"/>
<path d="M3660 2643 c-31 -11 -60 -47 -60 -74 0 -38 28 -67 80 -82 28 -8 46
-19 48 -30 5 -24 -25 -33 -47 -13 -22 20 -81 22 -81 2 0 -26 35 -57 73 -66 74
-16 137 21 137 81 0 33 -25 56 -86 78 -28 10 -49 23 -49 31 0 21 44 25 51 6 4
-11 19 -16 45 -16 38 0 38 0 28 29 -16 45 -88 73 -139 54z"/>
<path d="M2950 2510 l0 -130 35 0 34 0 3 68 3 67 23 -37 c30 -49 61 -50 96 -5
l26 32 0 -62 0 -63 40 0 40 0 0 130 0 130 -33 0 c-29 0 -38 -7 -76 -61 l-43
-61 -44 61 c-37 51 -49 61 -74 61 l-30 0 0 -130z"/>
</g>
</svg>
